<?xml version="1.0" standalone="no"?>
<!DOCTYPE svg PUBLIC "-//W3C//DTD SVG 20010904//EN"
 "http://www.w3.org/TR/2001/REC-SVG-20010904/DTD/svg10.dtd">
<svg version="1.0" xmlns="http://www.w3.org/2000/svg"
 width="430.000000pt" height="430.000000pt" viewBox="0 0 430.000000 430.000000"
 preserveAspectRatio="xMidYMid meet">
<metadata>
Created by potrace 1.14, written by Peter Selinger 2001-2017
</metadata>
<g transform="translate(0.000000,430.000000) scale(0.100000,-0.100000)"
fill="#000000" stroke="none">
<path d="M0 2150 l0 -2150 2150 0 2150 0 0 2150 0 2150 -2150 0 -2150 0 0
-2150z m2900 2070 c0 -5 -4 -10 -9 -10 -6 0 -13 5 -16 10 -3 6 1 10 9 10 9 0
16 -4 16 -10z m40 -6 c0 -8 -4 -12 -10 -9 -5 3 -10 10 -10 16 0 5 5 9 10 9 6
0 10 -7 10 -16z m-30 -40 c0 -8 -7 -14 -15 -14 -15 0 -21 21 -9 33 10 9 24 -2
24 -19z m-2425 -4 c3 -5 2 -10 -4 -10 -5 0 -13 5 -16 10 -3 6 -2 10 4 10 5 0
13 -4 16 -10z m2115 -35 c0 -8 -4 -15 -10 -15 -5 0 -10 7 -10 15 0 8 5 15 10
15 6 0 10 -7 10 -15z m1510 -35 c0 -5 -7 -10 -15 -10 -8 0 -15 5 -15 10 0 6 7
10 15 10 8 0 15 -4 15 -10z m-3870 -50 c0 -5 -2 -10 -4 -10 -3 0 -8 5 -11 10
-3 6 -1 10 4 10 6 0 11 -4 11 -10z m65 -60 c3 -5 1 -10 -4 -10 -6 0 -11 5 -11
10 0 6 2 10 4 10 3 0 8 -4 11 -10z m3825 -20 c0 -13 -7 -20 -20 -20 -13 0 -20
7 -20 20 0 13 7 20 20 20 13 0 20 -7 20 -20z m-1810 -64 c0 -9 20 -16 63 -20
173 -20 377 -81 567 -172 111 -54 114 -56 95 -72 -11 -9 -30 -30 -43 -46 -21
-27 -21 -30 -5 -43 17 -13 16 -14 -4 -10 -26 6 -45 -17 -84 -98 -14 -27 -37
-69 -53 -93 l-29 -42 -21 22 c-13 14 -18 26 -11 30 6 4 -4 20 -25 37 -30 26
-32 30 -15 31 19 1 18 2 -3 13 -12 7 -19 16 -16 20 4 4 2 7 -4 7 -6 0 -9 7 -5
17 4 11 3 14 -5 9 -8 -4 -12 0 -12 11 0 15 -2 16 -10 3 -8 -13 -10 -12 -10 3
0 9 -4 17 -10 17 -5 0 -10 5 -10 11 0 6 -6 16 -12 23 -15 14 -58 27 -56 17 2
-20 -4 -30 -17 -25 -25 10 -17 -5 13 -20 l27 -15 -30 -1 c-23 0 -27 -3 -15
-10 8 -5 26 -10 40 -11 15 -1 8 -5 -20 -10 -25 -5 -51 -7 -57 -4 -8 2 -13 -4
-13 -15 0 -29 -30 -25 -110 15 -39 19 -72 35 -75 36 -2 0 -20 6 -39 14 -39 17
-96 20 -96 6 0 -5 12 -14 28 -19 15 -6 20 -11 11 -11 -9 -1 -21 -7 -27 -14 -9
-11 -3 -13 31 -11 l42 2 -35 -19 c-35 -18 -35 -18 -8 -19 20 0 26 -4 22 -14
-4 -10 1 -14 15 -13 12 1 21 4 21 8 0 4 11 6 24 5 24 -1 24 -1 5 -19 -24 -23
-24 -31 0 -17 27 14 31 13 31 -7 0 -16 2 -16 10 -3 8 11 9 8 4 -13 -6 -27 -5
-28 22 -22 24 5 26 4 11 -5 -24 -16 -11 -31 21 -24 l27 5 -25 -15 c-19 -12
-21 -15 -7 -16 9 0 17 -4 17 -9 0 -12 -113 -9 -121 3 -9 11 -205 14 -243 3
l-29 -8 22 -15 c12 -9 18 -20 15 -26 -5 -7 1 -9 16 -5 16 4 20 3 12 -5 -14
-14 7 -38 28 -30 13 5 13 4 0 -13 -14 -17 -13 -17 10 -10 21 7 23 6 12 -7 -10
-13 -9 -15 13 -10 14 2 28 8 31 13 3 5 10 9 15 9 6 0 -6 -16 -26 -35 -26 -24
-50 -36 -81 -41 -43 -6 -44 -7 -24 -21 11 -8 28 -12 37 -9 14 6 14 4 2 -11
-12 -14 -12 -16 1 -11 12 4 15 -2 15 -26 0 -22 4 -30 15 -28 45 11 55 11 62
-1 6 -9 12 -7 23 7 8 11 15 14 15 7 0 -7 4 -10 9 -6 5 3 13 -5 16 -16 7 -20 8
-20 17 -6 11 21 28 22 28 2 0 -15 -7 -19 -77 -45 -22 -8 -30 -17 -26 -28 4
-13 3 -14 -5 -4 -8 11 -17 10 -53 -8 -42 -22 -130 -81 -156 -107 -7 -6 -23
-20 -36 -30 -27 -22 -87 -94 -87 -106 0 -4 8 -3 19 2 10 6 21 7 25 3 4 -3 11
0 17 8 7 11 8 6 3 -15 l-6 -30 21 33 c24 37 45 33 37 -7 -3 -15 3 -8 16 19 20
43 21 44 28 20 7 -21 8 -18 10 20 l3 45 10 -53 c9 -47 8 -58 -11 -91 -28 -49
-28 -59 0 -35 19 17 21 17 15 2 -4 -10 -2 -18 4 -18 5 0 14 11 18 24 14 35 39
41 47 11 5 -18 -3 -37 -30 -74 -24 -32 -34 -55 -30 -67 5 -15 4 -16 -4 -5 -12
17 -49 -38 -124 -186 -43 -85 -56 -103 -74 -103 -29 0 -74 -20 -74 -33 0 -5
-7 -7 -15 -4 -8 4 -17 2 -20 -3 -4 -6 -11 -10 -16 -10 -7 0 -8 34 -4 99 5 69
4 110 -5 136 l-13 38 -11 -27 -11 -27 -20 33 -20 33 -3 -32 c-3 -31 -22 -48
-22 -20 -1 6 -12 26 -26 42 -24 29 -25 30 -40 10 -8 -11 -12 -25 -10 -32 8
-21 -9 -15 -33 11 -14 14 -30 22 -40 19 -12 -4 -13 -3 -3 5 10 7 3 17 -30 45
-42 35 -63 42 -38 12 8 -10 9 -15 1 -15 -15 0 -14 -19 4 -54 8 -15 15 -35 15
-42 0 -8 4 -14 10 -14 5 0 7 -7 4 -15 -4 -8 -2 -15 3 -15 5 0 17 -16 26 -35
l17 -36 -22 12 c-13 6 -30 17 -38 24 -21 17 -182 65 -219 65 -28 0 -30 -2 -19
-20 9 -13 20 -18 38 -15 17 3 13 -1 -12 -11 -36 -16 -52 -44 -26 -44 6 0 9 -3
6 -6 -3 -3 -40 2 -82 10 -41 9 -95 16 -120 16 -43 0 -44 0 -33 -25 7 -14 19
-25 29 -25 11 0 15 -6 11 -19 -4 -16 -1 -19 16 -14 19 5 26 -4 22 -29 -2 -13
18 -9 47 9 l27 17 -24 -27 c-24 -26 -22 -52 1 -29 7 7 20 12 29 12 13 0 16 -6
11 -22 -5 -23 -5 -23 16 -4 20 17 22 17 22 2 0 -14 4 -15 21 -6 11 7 23 10 25
7 7 -7 -36 -41 -55 -44 -33 -5 -71 -22 -71 -32 0 -6 6 -8 13 -5 8 3 18 -6 25
-21 16 -35 15 -45 -5 -44 -10 0 -13 3 -7 5 13 5 7 44 -6 44 -5 0 -16 -3 -24
-6 -13 -5 -14 -10 -5 -20 9 -11 5 -11 -23 -2 -18 6 -77 13 -131 17 -94 6 -98
5 -93 -14 4 -14 -1 -12 -19 10 -25 31 -33 28 -15 -6 8 -15 7 -19 -5 -19 -19 0
-19 18 1 88 39 135 172 442 247 567 7 11 38 67 71 123 53 94 85 132 109 132 5
0 3 -8 -4 -17 -12 -15 -12 -16 1 -8 8 4 24 15 35 24 11 8 1 -5 -22 -30 -46
-48 -59 -78 -18 -39 30 28 33 15 5 -20 -18 -23 -29 -52 -13 -37 3 4 12 2 18
-3 16 -13 39 20 58 85 12 44 37 74 37 46 0 -6 15 -11 33 -11 l32 -1 -30 -14
c-16 -7 -23 -14 -15 -15 10 0 6 -6 -10 -16 -24 -14 -24 -15 18 -8 27 4 42 2
42 -5 0 -6 -11 -11 -24 -11 -14 0 -28 -4 -31 -10 -3 -6 4 -10 17 -10 l23 0
-25 -19 -24 -19 32 2 c29 2 30 1 17 -14 -8 -9 -15 -21 -15 -26 0 -5 5 -2 11 6
7 11 8 6 4 -20 -6 -32 -6 -33 8 -16 13 18 14 17 10 -15 l-4 -34 14 25 c8 14
22 67 31 118 12 70 23 103 46 137 36 53 40 72 5 30 -30 -37 -33 -18 -3 20 33
43 42 11 18 -67 -11 -34 -20 -64 -20 -65 0 -1 8 1 17 4 14 5 12 0 -6 -26 -13
-18 -21 -34 -18 -37 4 -4 31 27 64 75 2 2 5 2 8 -1 3 -3 -1 -18 -9 -34 -12
-21 -12 -30 -3 -36 8 -5 6 -9 -6 -14 -9 -3 -17 -14 -17 -24 0 -11 -4 -22 -10
-25 -5 -3 -10 -10 -10 -16 0 -18 15 -9 35 21 20 30 42 42 32 18 -3 -7 -12 -31
-21 -53 l-17 -40 21 24 21 25 -5 -30 c-4 -16 -3 -23 0 -16 10 21 24 13 24 -15
l1 -28 14 30 c13 28 13 27 10 -35 -3 -36 -2 -57 1 -47 3 9 10 17 15 17 5 0 9
8 10 18 1 19 4 11 14 -32 5 -23 8 -27 16 -15 6 9 9 10 9 2 0 -9 7 -10 25 -3
24 9 25 8 19 -15 -8 -33 2 -32 21 3 l15 27 -6 -30 -5 -30 16 25 c15 25 16 24
9 -17 -6 -42 9 -63 19 -25 3 9 5 2 6 -17 0 -19 3 -32 7 -29 6 7 18 194 15 268
-2 79 -22 240 -30 240 -3 0 -7 17 -8 38 -1 20 -12 74 -26 120 -13 46 -20 82
-14 82 6 0 19 7 29 17 20 18 39 10 20 -9 -7 -7 -12 -17 -12 -22 1 -6 10 0 20
13 26 31 25 17 -1 -25 -26 -43 -15 -43 28 -2 30 29 33 30 33 11 0 -12 -4 -25
-10 -28 -16 -10 -11 -21 10 -22 11 -1 20 4 20 10 0 26 20 -20 20 -48 l1 -30
13 24 13 24 8 -29 c4 -18 9 -24 13 -15 3 10 9 8 24 -10 17 -22 17 -20 -2 31
-12 30 -37 82 -57 115 -43 72 -197 230 -214 219 -7 -4 -9 -3 -5 4 3 6 2 13 -4
17 -5 3 -10 11 -10 17 0 7 6 6 15 -2 8 -7 15 -9 15 -5 0 4 6 2 14 -4 12 -10
14 -8 10 11 -5 20 -4 21 6 6 6 -10 16 -18 22 -18 6 0 5 7 -3 17 -12 15 -12 16
4 10 11 -4 20 -1 24 8 5 13 7 13 19 -2 12 -16 14 -15 15 12 1 24 3 25 6 8 2
-13 9 -23 14 -23 5 0 7 11 3 25 -9 35 19 33 34 -2 10 -26 11 -24 6 17 -4 41
-4 43 10 27 14 -18 15 -18 24 -1 9 15 12 16 26 5 14 -12 16 -11 10 4 -6 14 -3
16 14 11 26 -9 38 10 20 32 -11 15 -11 15 2 5 16 -12 73 -6 65 7 -3 4 7 11 23
15 26 7 26 7 -18 25 -25 10 -71 21 -103 25 -44 6 -60 12 -72 31 -14 21 -14 24
0 24 8 0 15 5 15 10 0 6 9 10 20 10 11 0 20 6 20 14 0 8 5 16 12 18 21 7 -3
28 -33 28 -52 0 -174 -29 -225 -54 -51 -25 -64 -25 -64 0 0 10 5 12 13 8 7 -5
6 0 -3 11 -14 17 -13 18 4 12 16 -6 18 -3 14 21 -2 16 2 34 12 44 28 30 218
59 418 65 100 3 185 10 188 14 8 14 24 10 24 -5z m848 -19 c2 -11 -3 -17 -16
-17 -26 0 -34 11 -20 27 14 17 32 12 36 -10z m-360 -10 c2 -10 -3 -17 -12 -17
-18 0 -29 16 -21 31 9 14 29 6 33 -14z m222 -122 c0 -9 -6 -12 -15 -9 -8 4
-15 10 -15 15 0 5 7 9 15 9 8 0 15 -7 15 -15z m-1135 -75 c3 -5 -1 -10 -9 -10
-8 0 -18 5 -21 10 -3 6 1 10 9 10 8 0 18 -4 21 -10z m1219 -59 c6 -10 -16 -21
-42 -21 -13 0 -12 3 4 15 22 17 31 18 38 6z m-47 -37 c-3 -3 -12 -4 -19 -1 -8
3 -5 6 6 6 11 1 17 -2 13 -5z m122 -13 c11 -7 9 -11 -8 -21 -23 -12 -51 0 -51
21 0 12 41 11 59 0z m-49 -41 c0 -5 -4 -10 -9 -10 -6 0 -13 5 -16 10 -3 6 1
10 9 10 9 0 16 -4 16 -10z m-1323 -22 c-3 -8 -6 -5 -6 6 -1 11 2 17 5 13 3 -3
4 -12 1 -19z m508 -8 c-3 -5 -11 -10 -16 -10 -6 0 -7 5 -4 10 3 6 11 10 16 10
6 0 7 -4 4 -10z m955 0 c12 -8 9 -10 -13 -10 -16 0 -26 4 -22 10 8 12 16 12
35 0z m-613 -26 c-3 -3 -12 -4 -19 -1 -8 3 -5 6 6 6 11 1 17 -2 13 -5z m593
-4 c0 -13 -20 -13 -40 0 -12 8 -9 10 13 10 15 0 27 -4 27 -10z m-2093 -56 c12
-12 13 -18 4 -27 -9 -9 -14 -8 -21 3 -11 17 -13 40 -4 40 3 0 12 -7 21 -16z
m-32 -36 c5 -18 3 -28 -4 -28 -6 0 -11 6 -11 13 0 6 -3 23 -6 37 -5 17 -4 22
4 15 6 -5 14 -22 17 -37z m-25 -29 c0 -16 -8 -34 -18 -41 -10 -7 -24 -22 -30
-33 -8 -15 -12 -16 -12 -5 -1 8 -3 25 -6 38 -3 20 -1 22 16 17 18 -6 20 -2 20
42 1 44 2 47 15 29 8 -11 15 -32 15 -47z m-210 47 c0 -2 -8 -10 -17 -17 -16
-13 -17 -12 -4 4 13 16 21 21 21 13z m124 -79 c13 -63 13 -69 -6 -92 -23 -29
-38 -25 -38 11 0 14 4 22 10 19 6 -4 10 20 10 66 0 40 2 70 5 68 2 -3 11 -35
19 -72z m2412 48 c10 -8 27 -15 37 -15 11 0 17 -8 17 -23 0 -13 15 -38 35 -57
19 -19 35 -37 35 -41 0 -4 -28 2 -62 13 -41 13 -96 21 -157 22 -67 1 -96 6
-99 15 -3 9 5 12 29 9 28 -2 33 0 31 14 -2 13 2 16 14 11 13 -5 15 -3 9 7 -6
10 -4 12 9 7 12 -5 19 0 25 15 5 14 10 17 15 10 13 -21 39 -14 33 8 -6 24 2
25 29 5z m-2468 -160 c6 -24 0 -40 -40 -100 -26 -38 -48 -75 -48 -82 0 -20 18
-24 34 -7 15 14 16 14 16 -5 0 -12 -4 -21 -10 -21 -5 0 -10 -7 -10 -15 0 -7
-6 -18 -14 -22 -20 -12 -116 -176 -116 -198 0 -2 6 -2 14 1 8 3 18 19 21 35 7
33 25 49 25 23 0 -16 1 -16 14 1 13 18 14 17 28 -9 l15 -29 6 39 c4 21 4 57 2
79 -5 39 -5 39 6 10 6 -16 18 -37 25 -46 12 -13 9 -28 -22 -100 -42 -100 -56
-183 -30 -173 9 3 16 12 16 19 0 7 7 18 15 25 8 7 16 29 17 49 1 36 1 36 5 4
3 -24 8 -30 20 -26 20 8 18 3 -48 -97 -50 -75 -159 -263 -159 -274 0 -2 -15
-37 -34 -78 -18 -40 -44 -99 -56 -130 -13 -31 -27 -55 -32 -52 -4 3 -9 -7 -9
-23 -1 -15 -3 -21 -6 -11 -7 27 -33 30 -43 5 -6 -16 -9 -17 -9 -5 -1 14 -15
17 -87 20 -79 3 -87 1 -95 -17 -7 -19 -8 -19 -8 3 -1 13 -5 21 -10 18 -5 -3
-15 1 -22 10 -18 21 2 293 32 429 37 172 44 200 51 210 4 6 18 42 32 79 65
172 240 461 280 461 10 0 24 9 32 19 7 11 17 16 21 13 4 -4 1 -13 -5 -19 -7
-7 -12 -16 -12 -21 0 -5 9 1 20 14 l20 24 -20 -52 c-28 -76 -15 -65 26 20 l35
72 -6 -65 c-4 -49 -3 -61 5 -48 6 10 13 47 17 83 3 36 10 65 14 65 4 0 10 -26
12 -57 l3 -58 2 67 c1 37 7 70 12 73 7 4 8 -7 5 -32 -3 -21 -2 -65 3 -98 9
-54 10 -56 11 -19 0 23 4 70 8 105 l7 64 9 -60 c4 -33 11 -73 15 -90z m9 103
c-3 -8 -6 -5 -6 6 -1 11 2 17 5 13 3 -3 4 -12 1 -19z m741 11 c-2 -6 -8 -10
-13 -10 -5 0 -11 4 -13 10 -2 6 4 11 13 11 9 0 15 -5 13 -11z m2512 -19 c0 -5
-7 -10 -15 -10 -8 0 -15 5 -15 10 0 6 7 10 15 10 8 0 15 -4 15 -10z m-2460
-29 c0 -15 -31 -42 -41 -36 -15 10 -10 21 14 33 28 14 27 14 27 3z m730 -1
c-8 -5 -19 -10 -25 -10 -5 0 -3 5 5 10 8 5 20 10 25 10 6 0 3 -5 -5 -10z
m1290 -10 c0 -5 -5 -10 -11 -10 -5 0 -7 5 -4 10 3 6 8 10 11 10 2 0 4 -4 4
-10z m-2013 -47 c-14 -15 -30 -23 -34 -19 -4 4 5 18 22 31 38 31 47 22 12 -12z
m1773 -13 c0 -5 -4 -10 -10 -10 -5 0 -10 5 -10 10 0 6 5 10 10 10 6 0 10 -4
10 -10z m-1248 -22 c-7 -7 -12 -8 -12 -2 0 14 12 26 19 19 2 -3 -1 -11 -7 -17z
m-64 -27 c-23 -30 -52 -42 -43 -18 4 9 48 42 63 46 2 1 -7 -12 -20 -28z m1612
15 c0 -3 -4 -8 -10 -11 -5 -3 -10 -1 -10 4 0 6 5 11 10 11 6 0 10 -2 10 -4z
m-1556 -16 c-12 -5 -25 -13 -29 -19 -3 -6 -14 -11 -23 -11 -14 1 -13 4 7 20
13 11 33 20 45 19 l21 0 -21 -9z m1366 -63 c0 -5 -4 -5 -10 -2 -5 3 -10 14
-10 23 0 15 2 15 10 2 5 -8 10 -19 10 -23z m530 -13 c0 -8 -7 -14 -15 -14 -15
0 -21 21 -9 33 10 9 24 -2 24 -19z m-2840 12 c0 -3 -4 -8 -10 -11 -5 -3 -10
-1 -10 4 0 6 5 11 10 11 6 0 10 -2 10 -4z m-157 -20 c4 -10 1 -13 -8 -9 -8 3
-12 9 -9 14 7 12 11 11 17 -5z m357 -24 c0 -5 -11 -19 -25 -32 -24 -22 -25
-22 -25 -4 0 11 5 25 12 32 14 14 38 16 38 4z m-1020 -12 c0 -5 -4 -10 -10
-10 -5 0 -10 5 -10 10 0 6 5 10 10 10 6 0 10 -4 10 -10z m3074 -6 c3 -8 2 -12
-4 -9 -6 3 -10 10 -10 16 0 14 7 11 14 -7z m84 -4 c14 0 41 -27 42 -42 0 -8
-41 2 -56 14 -7 5 -14 18 -17 30 -5 16 -3 18 6 9 6 -6 17 -11 25 -11z m-2537
-12 c11 -21 11 -22 -4 -9 -10 7 -17 17 -17 22 0 15 9 10 21 -13z m149 -8 c-33
-26 -52 -25 -21 0 13 11 28 20 35 20 6 0 0 -9 -14 -20z m105 10 c3 -5 -3 -10
-14 -10 -12 0 -21 5 -21 10 0 6 6 10 14 10 8 0 18 -4 21 -10z m-1215 -20 c0
-5 -4 -10 -10 -10 -5 0 -10 5 -10 10 0 6 5 10 10 10 6 0 10 -4 10 -10z m185 0
c3 -5 -1 -10 -10 -10 -9 0 -13 5 -10 10 3 6 8 10 10 10 2 0 7 -4 10 -10z
m2892 -22 c-3 -8 -6 -5 -6 6 -1 11 2 17 5 13 3 -3 4 -12 1 -19z m173 -20 c0
-6 -7 -5 -15 2 -8 7 -15 17 -15 22 0 6 7 5 15 -2 8 -7 15 -17 15 -22z m-2042
2 c-7 -11 -20 -20 -28 -20 -13 0 -13 -1 0 -10 21 -14 -5 -13 -31 1 -15 7 -24
7 -35 -2 -8 -6 -14 -8 -14 -3 0 17 65 54 92 54 26 0 27 -2 16 -20z m-131 -25
c-26 -23 -47 -32 -47 -20 0 6 62 45 70 45 3 -1 -8 -12 -23 -25z m2065 -17 c-9
-9 -12 -7 -12 12 0 19 3 21 12 12 9 -9 9 -15 0 -24z m-2208 6 c3 -8 2 -12 -4
-9 -6 3 -10 10 -10 16 0 14 7 11 14 -7z m2368 -29 c4 -16 1 -24 -6 -22 -6 2
-12 16 -14 31 -4 35 14 26 20 -9z m-51 8 c13 -16 12 -17 -3 -4 -17 13 -22 21
-14 21 2 0 10 -8 17 -17z m-1106 -14 c-10 -15 -25 -10 -19 6 4 8 10 12 15 9 5
-3 7 -10 4 -15z m-2095 1 c0 -5 -4 -10 -10 -10 -5 0 -10 5 -10 10 0 6 5 10 10
10 6 0 10 -4 10 -10z m3191 -12 c28 -34 25 -52 -5 -33 -14 9 -24 25 -23 36 2
24 5 24 28 -3z m335 -65 c17 -59 41 -85 29 -34 -7 31 -6 32 14 19 23 -14 49
-75 86 -205 38 -130 56 -246 62 -404 6 -140 5 -147 -16 -168 -11 -11 -21 -17
-21 -11 0 6 -109 10 -284 12 -156 2 -282 0 -279 -4 2 -5 -2 -8 -11 -8 -8 0
-17 -6 -19 -12 -3 -7 -6 -3 -6 9 -1 12 -6 25 -12 29 -6 3 -9 19 -5 35 3 15 1
31 -4 34 -6 3 -10 18 -10 33 0 15 -11 47 -25 71 -27 47 -30 55 -16 46 6 -3 11
14 13 37 l4 43 8 -53 c10 -63 26 -78 27 -25 1 21 5 52 9 68 8 27 8 26 7 -12
-1 -58 11 -65 19 -12 10 58 22 27 25 -61 l1 -65 9 60 c12 83 15 87 24 30 3
-27 13 -70 20 -95 l14 -45 -5 55 c-4 42 -3 52 6 40 9 -12 10 -5 6 30 l-5 45
18 -53 c10 -29 21 -56 25 -59 11 -11 6 26 -8 64 -23 62 -27 103 -15 167 18 96
29 89 29 -18 0 -64 4 -95 10 -91 7 4 8 -8 4 -34 -4 -28 -3 -41 5 -41 6 0 11 8
11 18 0 11 9 29 20 42 l20 23 0 -56 c0 -63 19 -80 21 -19 1 23 3 28 6 15 2
-13 9 -23 14 -23 5 0 9 10 9 23 0 20 2 19 16 -8 9 -16 20 -41 24 -55 7 -21 8
-18 9 19 1 56 14 46 41 -34 l20 -60 -5 45 c-5 42 -4 44 10 26 15 -19 15 -19
16 5 0 23 1 23 9 3 13 -34 27 -37 28 -6 0 48 -170 291 -302 429 -62 66 -68 76
-58 96 l11 22 2 -25 c1 -21 3 -20 8 8 3 18 10 33 16 34 5 0 22 -24 38 -53 l27
-54 -6 39 c-7 43 -1 43 44 2 19 -17 22 -17 16 -3 -3 10 -1 17 5 17 6 0 11 -4
11 -10 0 -5 9 -14 20 -20 34 -18 22 5 -30 59 -43 44 -50 57 -50 91 0 21 -3 47
-7 57 -6 16 -5 16 10 4 9 -7 17 -11 17 -7 0 3 13 -8 29 -26 16 -18 29 -26 28
-18 -1 8 3 16 8 18 6 1 11 -10 13 -25 5 -44 22 -52 24 -12 0 18 0 45 -1 59 -1
21 3 17 25 -20 15 -25 31 -47 35 -50 4 -3 11 -18 15 -35 7 -29 7 -29 16 -5 5
14 5 35 -2 53 -5 17 -10 44 -10 60 0 29 1 30 15 11 8 -10 22 -43 31 -71z m-68
36 c-3 -8 -7 -3 -11 10 -4 17 -3 21 5 13 5 -5 8 -16 6 -23z m457 21 c3 -5 -1
-10 -9 -10 -9 0 -16 5 -16 10 0 6 4 10 9 10 6 0 13 -4 16 -10z m-3055 -5 c0
-11 -31 -65 -36 -65 -4 0 -4 8 -1 19 2 10 0 26 -5 35 -7 13 -4 16 17 16 14 0
25 -2 25 -5z m1170 -2 c0 -14 -19 -38 -25 -32 -8 8 5 39 16 39 5 0 9 -3 9 -7z
m1770 3 c0 -11 -19 -15 -25 -6 -3 5 1 10 9 10 9 0 16 -2 16 -4z m-536 -38 c7
-37 2 -45 -19 -28 -15 13 -20 42 -8 53 13 14 21 6 27 -25z m-313 -15 c-8 -15
-10 -15 -11 -2 0 17 10 32 18 25 2 -3 -1 -13 -7 -23z m-2141 -39 c0 -13 -4
-24 -10 -24 -5 0 -10 14 -10 31 0 17 4 28 10 24 6 -3 10 -17 10 -31z m230 28
c0 -13 -12 -22 -22 -16 -10 6 -1 24 13 24 5 0 9 -4 9 -8z m910 -11 c0 -19 -17
-38 -25 -29 -7 7 7 48 16 48 5 0 9 -9 9 -19z m1137 -23 c-3 -8 -6 -5 -6 6 -1
11 2 17 5 13 3 -3 4 -12 1 -19z m63 -24 c0 -40 -2 -45 -15 -34 -18 15 -18 20
-5 54 14 38 20 32 20 -20z m-2375 6 c3 -5 1 -10 -4 -10 -6 0 -11 5 -11 10 0 6
2 10 4 10 3 0 8 -4 11 -10z m1113 -27 c-4 -39 -28 -42 -28 -4 0 21 5 31 16 31
11 0 14 -8 12 -27z m-1141 -20 c-3 -10 -5 -4 -5 12 0 17 2 24 5 18 2 -7 2 -21
0 -30z m3178 28 c3 -5 1 -12 -5 -16 -5 -3 -10 1 -10 9 0 18 6 21 15 7z m-2543
-33 c-7 -7 -12 -8 -12 -2 0 14 12 26 19 19 2 -3 -1 -11 -7 -17z m1028 3 c0 -5
-9 -7 -20 -4 -11 3 -20 7 -20 9 0 2 9 4 20 4 11 0 20 -4 20 -9z m-230 -11 c0
-5 -5 -10 -11 -10 -5 0 -7 5 -4 10 3 6 8 10 11 10 2 0 4 -4 4 -10z m-210 -38
c0 -7 -4 -10 -10 -7 -5 3 -10 16 -10 28 0 18 2 19 10 7 5 -8 10 -21 10 -28z
m421 7 c14 -14 18 -24 11 -31 -13 -13 -60 22 -54 40 6 18 19 15 43 -9z m-241
-14 c7 -8 9 -22 6 -31 -6 -16 -8 -15 -21 2 -26 35 -13 62 15 29z m1030 -1 c0
-8 -4 -12 -10 -9 -5 3 -10 10 -10 16 0 5 5 9 10 9 6 0 10 -7 10 -16z m-124
-20 c-4 -9 -9 -15 -11 -12 -3 3 -3 13 1 22 4 9 9 15 11 12 3 -3 3 -13 -1 -22z
m-1111 6 c3 -5 1 -10 -4 -10 -6 0 -11 5 -11 10 0 6 2 10 4 10 3 0 8 -4 11 -10z
m982 -22 c-3 -8 -6 -5 -6 6 -1 11 2 17 5 13 3 -3 4 -12 1 -19z m883 7 c0 -8
-7 -15 -15 -15 -8 0 -15 7 -15 15 0 8 7 15 15 15 8 0 15 -7 15 -15z m-45 -5
c3 -5 -1 -10 -9 -10 -9 0 -16 5 -16 10 0 6 4 10 9 10 6 0 13 -4 16 -10z
m-1385 -83 c0 -14 -9 -11 -45 20 -25 20 -45 41 -45 45 0 4 20 -5 45 -20 27
-16 45 -34 45 -45z m-250 -10 c0 -16 -18 3 -39 40 l-21 38 30 -35 c16 -19 30
-38 30 -43z m853 58 c-3 -9 -8 -14 -10 -11 -3 3 -2 9 2 15 9 16 15 13 8 -4z
m-63 -5 c0 -5 -4 -10 -10 -10 -5 0 -10 5 -10 10 0 6 5 10 10 10 6 0 10 -4 10
-10z m180 -17 c0 -20 -3 -24 -11 -16 -7 7 -9 19 -6 27 10 24 17 19 17 -11z
m-997 -65 c17 -12 17 -15 2 -33 -15 -20 -16 -19 -55 25 -68 76 -47 79 53 8z
m198 -11 c47 -52 56 -68 52 -90 -6 -33 -20 -35 -33 -4 -6 12 -28 45 -50 72
-36 46 -51 85 -32 85 4 0 32 -28 63 -63z m52 30 c19 -16 24 -51 5 -45 -6 2
-22 21 -35 42 -25 38 -17 39 30 3z m57 -7 c0 -5 -4 -10 -10 -10 -5 0 -10 5
-10 10 0 6 5 10 10 10 6 0 10 -4 10 -10z m580 -60 c-7 -28 -16 -50 -21 -50
-12 0 -11 13 3 47 14 34 15 38 18 61 1 11 3 13 7 4 3 -7 -1 -35 -7 -62z m160
63 c0 -5 -5 -15 -10 -23 -8 -12 -10 -11 -10 8 0 12 5 22 10 22 6 0 10 -3 10
-7z m-709 -26 c-13 -13 -26 -3 -16 12 3 6 11 8 17 5 6 -4 6 -10 -1 -17z m419
3 c0 -5 -4 -10 -10 -10 -5 0 -10 5 -10 10 0 6 5 10 10 10 6 0 10 -4 10 -10z
m-832 -48 c40 -37 50 -50 42 -62 -8 -12 -19 -5 -60 39 -47 50 -60 71 -42 71 4
0 31 -22 60 -48z m442 38 c0 -5 -5 -10 -11 -10 -5 0 -7 5 -4 10 3 6 8 10 11
10 2 0 4 -4 4 -10z m40 1 c0 -6 -4 -13 -10 -16 -5 -3 -10 1 -10 9 0 9 5 16 10
16 6 0 10 -4 10 -9z m1320 -6 c0 -8 -7 -15 -15 -15 -8 0 -15 7 -15 15 0 8 7
15 15 15 8 0 15 -7 15 -15z m-1435 -5 c3 -5 1 -10 -4 -10 -6 0 -11 5 -11 10 0
6 2 10 4 10 3 0 8 -4 11 -10z m-127 -112 l60 -97 -14 -73 c-33 -172 -37 -185
-45 -158 -4 16 -7 19 -8 8 -2 -42 -31 -9 -31 35 0 12 -7 31 -15 41 -8 11 -11
22 -6 25 5 3 -1 26 -13 51 -19 40 -55 127 -64 155 -2 5 20 -26 49 -70 48 -73
79 -108 87 -100 2 2 -8 22 -23 44 -14 23 -23 47 -19 53 5 7 10 3 16 -12 5 -12
11 -20 14 -17 5 5 -20 94 -52 180 -28 76 -17 65 64 -65z m-28 105 c0 -5 12
-21 26 -38 58 -66 76 -95 70 -111 -5 -12 -14 -4 -39 33 -60 89 -79 123 -68
123 6 0 11 -3 11 -7z m781 -16 c-10 -9 -11 -8 -5 6 3 10 9 15 12 12 3 -3 0
-11 -7 -18z m-3143 -11 c5 -24 -10 -38 -31 -30 -20 7 -22 25 -5 42 16 16 32
10 36 -12z m3389 -23 c-3 -10 -5 -2 -5 17 0 19 2 27 5 18 2 -10 2 -26 0 -35z
m-377 33 c0 -2 -7 -7 -16 -10 -8 -3 -12 -2 -9 4 6 10 25 14 25 6z m165 -68
c-7 -48 -9 -50 -16 -25 -4 16 -6 35 -3 43 12 41 15 46 20 41 3 -3 3 -30 -1
-59z m131 46 c-3 -9 -6 -21 -6 -27 0 -8 -3 -8 -11 0 -13 13 -5 43 12 43 6 0 8
-7 5 -16z m-69 -51 c-3 -10 -5 -2 -5 17 0 19 2 27 5 18 2 -10 2 -26 0 -35z
m-1117 -13 l41 -49 -47 -141 c-26 -77 -51 -140 -54 -140 -4 0 -17 8 -29 19
-12 10 -45 22 -75 25 l-53 7 -5 77 c-3 42 -8 86 -12 97 -4 11 2 3 11 -17 10
-20 30 -46 46 -58 28 -22 35 -13 16 21 -6 11 -8 25 -6 32 2 7 15 -10 27 -37
28 -58 40 -44 16 18 -42 110 -22 114 61 13 13 -15 30 -27 39 -27 14 0 14 2 3
16 -7 9 -13 24 -14 35 -1 10 -9 27 -17 36 -16 19 -48 77 -48 89 0 4 14 -10 30
-31 35 -44 60 -64 79 -65 9 0 5 8 -10 23 -30 29 -59 65 -59 73 0 3 7 4 15 0
18 -7 20 5 3 22 -7 7 -9 12 -6 12 3 0 25 -22 48 -50z m199 10 c0 -10 -3 -8 -9
5 -12 27 -12 43 0 25 5 -8 9 -22 9 -30z m271 30 c0 -5 -7 -10 -16 -10 -8 0
-12 5 -9 10 3 6 10 10 16 10 5 0 9 -4 9 -10z m837 -27 c-3 -10 -5 -4 -5 12 0
17 2 24 5 18 2 -7 2 -21 0 -30z m-416 -37 c-11 -25 -22 -46 -25 -46 -7 0 2 27
22 67 24 48 27 32 3 -21z m-506 34 c3 -5 1 -10 -4 -10 -6 0 -11 5 -11 10 0 6
2 10 4 10 3 0 8 -4 11 -10z m155 0 c0 -5 -4 -10 -10 -10 -5 0 -10 5 -10 10 0
6 5 10 10 10 6 0 10 -4 10 -10z m-500 -20 c6 -11 8 -20 6 -20 -3 0 -10 9 -16
20 -6 11 -8 20 -6 20 3 0 10 -9 16 -20z m325 0 c3 -5 1 -10 -4 -10 -6 0 -11 5
-11 10 0 6 2 10 4 10 3 0 8 -4 11 -10z m632 -12 c-3 -8 -6 -5 -6 6 -1 11 2 17
5 13 3 -3 4 -12 1 -19z m-87 -63 c0 -8 -4 -15 -10 -15 -5 0 -7 7 -4 15 4 8 8
15 10 15 2 0 4 -7 4 -15z m-525 -53 c-6 -7 -45 19 -45 29 0 5 11 2 24 -8 13
-10 23 -19 21 -21z m1605 28 c0 -5 -7 -10 -15 -10 -8 0 -15 5 -15 10 0 6 7 10
15 10 8 0 15 -4 15 -10z m-1845 -75 c20 -36 44 -73 55 -83 10 -9 21 -35 25
-57 6 -39 6 -39 -9 -15 l-15 25 -2 -25 c-1 -23 -2 -23 -8 5 -4 17 -23 59 -41
95 -31 61 -53 120 -45 120 2 0 20 -29 40 -65z m19 39 c3 -8 2 -12 -4 -9 -6 3
-10 10 -10 16 0 14 7 11 14 -7z m747 -35 c-6 -16 -10 -18 -10 -7 -1 22 12 55
16 42 2 -6 -1 -22 -6 -35z m-3121 -9 c0 -5 -4 -10 -10 -10 -5 0 -10 5 -10 10
0 6 5 10 10 10 6 0 10 -4 10 -10z m2324 -118 c6 -9 11 -10 21 -2 17 14 27 -11
13 -31 -8 -11 -9 -10 -4 4 7 23 -2 21 -25 -5 -10 -13 -18 -17 -19 -10 0 6 5
12 10 12 6 0 10 5 10 11 0 6 -7 9 -15 5 -11 -4 -15 2 -15 23 0 16 -4 31 -9 33
-5 2 -12 17 -15 33 -5 25 -2 22 17 -15 12 -25 26 -51 31 -58z m-368 71 c7 -10
13 -25 13 -33 1 -10 -6 -6 -19 10 -11 14 -20 28 -20 33 0 12 12 8 26 -10z
m1184 -23 c-5 -22 -8 -27 -9 -13 -1 21 9 56 14 51 2 -2 0 -19 -5 -38z m-812 5
c-3 -3 -9 2 -12 12 -6 14 -5 15 5 6 7 -7 10 -15 7 -18z m-59 -74 c1 -35 -5
-22 -12 24 -5 28 -4 34 3 20 5 -11 9 -31 9 -44z m898 27 c-3 -8 -6 -5 -6 6 -1
11 2 17 5 13 3 -3 4 -12 1 -19z m30 -20 c-3 -8 -6 -5 -6 6 -1 11 2 17 5 13 3
-3 4 -12 1 -19z m-2975 -20 c-9 -9 -15 -9 -24 0 -10 10 -10 15 2 22 20 12 38
-6 22 -22z m980 -10 c-8 -8 -9 -4 -5 13 4 13 8 18 11 10 2 -7 -1 -18 -6 -23z
m1343 4 c-3 -3 -11 0 -18 7 -9 10 -8 11 6 5 10 -3 15 -9 12 -12z m-395 -2 c0
-5 -5 -10 -11 -10 -5 0 -7 5 -4 10 3 6 8 10 11 10 2 0 4 -4 4 -10z m320 -10
c0 -5 -2 -10 -4 -10 -3 0 -8 5 -11 10 -3 6 -1 10 4 10 6 0 11 -4 11 -10z
m-2200 -230 c0 -5 -4 -10 -10 -10 -5 0 -10 5 -10 10 0 6 5 10 10 10 6 0 10 -4
10 -10z m3672 -105 c-2 -5 -11 -10 -21 -9 -14 0 -18 -7 -18 -30 0 -17 -3 -48
-7 -69 -4 -24 -4 -37 2 -33 6 4 7 -7 2 -29 -4 -20 -6 -45 -3 -56 3 -11 0 -32
-8 -45 -11 -21 -11 -27 0 -33 10 -6 10 -13 2 -29 -8 -15 -7 -23 4 -32 19 -16
19 -37 0 -57 -12 -11 -13 -18 -4 -29 14 -17 3 -35 -16 -27 -10 3 -15 -1 -15
-14 0 -11 -7 -28 -15 -39 -8 -10 -15 -29 -15 -42 0 -12 -7 -25 -15 -28 -8 -3
-26 -27 -41 -52 -29 -51 -152 -175 -197 -198 -15 -8 -32 -12 -38 -8 -7 4 -9
-2 -5 -17 3 -13 3 -18 0 -11 -11 23 -24 12 -18 -15 6 -24 5 -26 -17 -20 -25 7
-129 -20 -129 -34 0 -4 -14 -10 -30 -14 -19 -4 -28 -11 -24 -18 5 -8 2 -8 -7
0 -20 19 -34 16 -18 -4 10 -12 11 -15 1 -9 -7 4 -28 -1 -50 -13 -24 -14 -29
-15 -14 -4 55 42 270 264 323 335 123 161 249 397 304 568 14 47 29 92 32 100
4 8 6 18 5 21 -1 3 11 6 26 5 15 -1 26 -5 24 -11z m208 -15 c0 -5 -4 -10 -10
-10 -5 0 -10 5 -10 10 0 6 5 10 10 10 6 0 10 -4 10 -10z m-200 -105 c0 -8 -4
-15 -10 -15 -5 0 -10 7 -10 15 0 8 5 15 10 15 6 0 10 -7 10 -15z m-3563 -12
c3 -10 21 -56 39 -103 19 -46 34 -94 34 -107 0 -12 6 -26 13 -30 7 -4 42 -55
77 -113 97 -159 224 -323 296 -383 19 -16 34 -35 34 -43 0 -8 7 -17 15 -20 12
-5 13 -10 4 -20 -14 -17 -33 -8 -25 12 3 7 1 16 -5 19 -5 4 -7 11 -4 16 4 5
-7 12 -24 15 -17 4 -29 10 -26 14 3 4 -2 10 -10 14 -8 3 -17 1 -20 -4 -10 -16
-37 2 -32 21 3 11 1 17 -3 14 -10 -6 -60 41 -52 49 3 3 -4 6 -16 6 -45 0 -286
269 -267 300 2 4 -2 16 -10 26 -8 10 -15 37 -15 59 -1 32 -3 36 -10 20 -5 -11
-9 -15 -10 -10 -1 6 -4 21 -6 35 -2 13 -2 31 2 40 10 22 12 50 3 44 -4 -2 -10
0 -14 6 -3 5 1 10 9 10 10 0 13 6 9 16 -3 9 -13 14 -24 11 -28 -7 -45 19 -25
39 9 8 14 20 11 25 -4 5 2 6 11 2 12 -4 15 -3 10 5 -4 7 -2 12 4 12 6 0 8 5 5
10 -3 6 -1 10 5 10 6 0 13 -8 17 -17z m-243 -22 c3 -4 3 -11 0 -14 -8 -8 -34
3 -34 14 0 11 27 12 34 0z m4096 -211 c0 -5 -7 -10 -16 -10 -8 0 -12 5 -9 10
3 6 10 10 16 10 5 0 9 -4 9 -10z m-175 -140 c3 -5 1 -10 -4 -10 -6 0 -11 5
-11 10 0 6 2 10 4 10 3 0 8 -4 11 -10z m-5 -35 c0 -8 -7 -15 -15 -15 -8 0 -15
7 -15 15 0 8 7 15 15 15 8 0 15 -7 15 -15z m-480 -335 c0 -5 -7 -10 -16 -10
-8 0 -12 5 -9 10 3 6 10 10 16 10 5 0 9 -4 9 -10z m-2820 -60 c0 -5 -7 -10
-15 -10 -8 0 -15 5 -15 10 0 6 7 10 15 10 8 0 15 -4 15 -10z m-340 -20 c0 -13
-7 -20 -20 -20 -19 0 -27 20 -13 33 13 14 33 6 33 -13z m55 -10 c3 -5 -1 -10
-10 -10 -9 0 -13 5 -10 10 3 6 8 10 10 10 2 0 7 -4 10 -10z m3085 -10 c0 -5
-5 -10 -11 -10 -5 0 -7 5 -4 10 3 6 8 10 11 10 2 0 4 -4 4 -10z m-2680 -26 c0
-8 -7 -14 -15 -14 -15 0 -21 21 -9 33 10 9 24 -2 24 -19z m-176 -25 c-6 -11
-24 -2 -24 11 0 5 7 7 15 4 8 -4 12 -10 9 -15z m357 -26 c12 -16 12 -17 -1 -6
-15 11 -20 13 -40 13 -5 0 -10 7 -10 15 0 19 29 6 51 -22z m2109 -7 c0 -2 -8
-10 -17 -17 -16 -13 -17 -12 -4 4 13 16 21 21 21 13z m910 -16 c0 -5 -7 -10
-15 -10 -8 0 -15 5 -15 10 0 6 7 10 15 10 8 0 15 -4 15 -10z m-892 -47 c2 -8
-5 -13 -17 -13 -12 0 -21 6 -21 16 0 18 31 15 38 -3z m-2778 -33 c0 -5 -4 -10
-9 -10 -6 0 -13 5 -16 10 -3 6 1 10 9 10 9 0 16 -4 16 -10z m2828 -12 c20 -20
14 -28 -13 -16 -13 6 -22 15 -19 19 7 12 18 11 32 -3z m-1988 -98 c0 -5 -4
-10 -10 -10 -5 0 -10 5 -10 10 0 6 5 10 10 10 6 0 10 -4 10 -10z m-144 -31 c9
-15 -11 -33 -30 -26 -9 4 -13 13 -10 22 7 17 30 20 40 4z m1714 -9 c0 -5 -4
-10 -10 -10 -5 0 -10 5 -10 10 0 6 5 10 10 10 6 0 10 -4 10 -10z m-61 -51
c-20 -12 -33 -6 -37 18 -4 28 30 36 42 10 7 -13 6 -21 -5 -28z m-1089 21 c0
-5 -2 -10 -4 -10 -3 0 -8 5 -11 10 -3 6 -1 10 4 10 6 0 11 -4 11 -10z m45 -10
c3 -5 -1 -10 -9 -10 -9 0 -16 5 -16 10 0 6 4 10 9 10 6 0 13 -4 16 -10z m740
-19 c3 -5 1 -12 -4 -15 -12 -8 -41 3 -41 15 0 12 37 12 45 0z m-595 -11 c-8
-5 -22 -9 -30 -9 -10 0 -8 3 5 9 27 12 43 12 25 0z m525 0 c-27 -12 -43 -12
-25 0 8 5 22 9 30 9 10 0 8 -3 -5 -9z m-405 -10 c18 -12 2 -12 -25 0 -13 6
-15 9 -5 9 8 0 22 -4 30 -9z m310 6 c0 -3 -4 -8 -10 -11 -5 -3 -10 -1 -10 4 0
6 5 11 10 11 6 0 10 -2 10 -4z m42 -28 c-9 -9 -15 -9 -24 0 -10 10 -10 15 2
22 20 12 38 -6 22 -22z m-277 12 c4 -6 -6 -10 -22 -9 -25 0 -26 1 -8 9 11 5
21 9 22 9 1 1 5 -3 8 -9z m83 1 c11 -7 10 -9 -3 -14 -9 -4 -13 -3 -10 2 3 5
-3 12 -12 14 -13 3 -14 5 -3 6 8 0 21 -3 28 -8z m62 1 c0 -5 -7 -9 -15 -9 -8
0 -12 4 -9 9 3 4 9 8 15 8 5 0 9 -4 9 -8z m55 -2 c-3 -5 -16 -10 -28 -10 -18
0 -19 2 -7 10 20 13 43 13 35 0z m-555 -25 c0 -8 -4 -15 -9 -15 -13 0 -22 16
-14 24 11 11 23 6 23 -9z m1005 -14 c7 -12 -12 -24 -25 -16 -11 7 -4 25 10 25
5 0 11 -4 15 -9z m-639 -22 c10 -17 -13 -36 -27 -22 -12 12 -4 33 11 33 5 0
12 -5 16 -11z m1714 -39 c0 -5 -7 -10 -15 -10 -8 0 -15 5 -15 10 0 6 7 10 15
10 8 0 15 -4 15 -10z m-1832 -11 c-2 -6 -8 -10 -13 -10 -5 0 -11 4 -13 10 -2
6 4 11 13 11 9 0 15 -5 13 -11z m-788 -25 c0 -8 -4 -12 -10 -9 -5 3 -10 10
-10 16 0 5 5 9 10 9 6 0 10 -7 10 -16z m500 -15 c0 -12 -7 -19 -20 -19 -22 0
-29 35 -7 43 18 6 27 -2 27 -24z m1690 11 c0 -5 -5 -10 -11 -10 -5 0 -7 5 -4
10 3 6 8 10 11 10 2 0 4 -4 4 -10z m-1350 -10 c0 -5 -4 -10 -10 -10 -5 0 -10
5 -10 10 0 6 5 10 10 10 6 0 10 -4 10 -10z m-872 -63 c2 -12 -3 -17 -17 -17
-12 0 -21 6 -21 13 0 31 32 34 38 4z m1092 7 c0 -9 -7 -14 -17 -12 -25 5 -28
28 -4 28 12 0 21 -6 21 -16z m1150 -4 c0 -5 -4 -10 -10 -10 -5 0 -10 5 -10 10
0 6 5 10 10 10 6 0 10 -4 10 -10z m-3190 -15 c0 -8 -9 -15 -20 -15 -20 0 -26
11 -13 23 12 13 33 7 33 -8z m3160 5 c0 -5 -7 -10 -15 -10 -8 0 -15 5 -15 10
0 6 7 10 15 10 8 0 15 -4 15 -10z"/>
<path d="M2120 2594 c0 -8 5 -12 10 -9 6 4 8 11 5 16 -9 14 -15 11 -15 -7z"/>
<path d="M840 2051 c0 -6 4 -13 10 -16 6 -3 7 1 4 9 -7 18 -14 21 -14 7z"/>
<path d="M720 3179 c0 -5 5 -7 10 -4 6 3 10 8 10 11 0 2 -4 4 -10 4 -5 0 -10
-5 -10 -11z"/>
<path d="M3896 1417 c3 -10 9 -15 12 -12 3 3 0 11 -7 18 -10 9 -11 8 -5 -6z"/>
</g>
</svg>
